<?xml version="1.0" encoding="utf-8"?>
<!-- Generator: Adobe Illustrator 17.0.0, SVG Export Plug-In . SVG Version: 6.00 Build 0)  -->
<!DOCTYPE svg PUBLIC "-//W3C//DTD SVG 1.1//EN" "http://www.w3.org/Graphics/SVG/1.1/DTD/svg11.dtd">
<svg version="1.1" id="Layer_1" xmlns="http://www.w3.org/2000/svg" xmlns:xlink="http://www.w3.org/1999/xlink" x="0px" y="0px"
	 width="292.961px" height="29.766px" viewBox="0 0 292.961 29.766" enable-background="new 0 0 292.961 29.766"
	 xml:space="preserve">
<g>
	<path fill="#EE2E5D" d="M10.346,18.235c-0.608,0.578-1.488,0.866-2.644,0.866c-0.537,0-1.045-0.084-1.523-0.253
		s-0.895-0.424-1.254-0.763c-0.358-0.337-0.642-0.761-0.851-1.268c-0.209-0.508-0.314-1.091-0.314-1.747v-0.179
		c0-0.658,0.105-1.25,0.314-1.777c0.209-0.528,0.492-0.975,0.851-1.343c0.358-0.369,0.776-0.652,1.254-0.852
		c0.478-0.198,0.986-0.298,1.523-0.298c1.155,0,2.05,0.318,2.688,0.956c0.424,0.424,0.734,0.902,0.928,1.432l3.704-0.952
		c-0.412-1.373-1.155-2.508-2.229-3.408C11.51,7.576,9.833,7.038,7.763,7.038c-1.075,0-2.086,0.18-3.031,0.538
		C3.787,7.935,2.96,8.452,2.254,9.128c-0.706,0.677-1.259,1.494-1.657,2.449C0.198,12.533,0,13.607,0,14.801v0.358
		c0,1.194,0.198,2.26,0.597,3.195c0.398,0.936,0.945,1.722,1.642,2.359c0.696,0.638,1.517,1.125,2.462,1.464
		c0.945,0.337,1.966,0.507,3.061,0.507c2.109,0,3.796-0.537,5.061-1.612c1.045-0.889,1.773-2.008,2.185-3.362l-3.713-0.954
		C11.081,17.344,10.765,17.837,10.346,18.235z"/>
	<path fill="#EE2E5D" d="M34.419,15.04c0,1.234-0.209,2.324-0.627,3.269c-0.418,0.946-0.985,1.742-1.702,2.389
		c-0.717,0.647-1.538,1.14-2.463,1.478c-0.926,0.338-1.896,0.508-2.911,0.508c-1.015,0-1.986-0.169-2.911-0.508
		c-0.926-0.338-1.747-0.831-2.463-1.478c-0.717-0.647-1.284-1.443-1.702-2.389c-0.418-0.945-0.627-2.035-0.627-3.269v-0.358
		c0-1.214,0.209-2.294,0.627-3.24c0.418-0.945,0.985-1.747,1.702-2.404c0.717-0.657,1.538-1.154,2.463-1.493
		c0.926-0.338,1.896-0.508,2.911-0.508c1.015,0,1.986,0.169,2.911,0.508c0.926,0.339,1.747,0.836,2.463,1.493
		c0.717,0.657,1.284,1.458,1.702,2.404c0.418,0.946,0.627,2.026,0.627,3.24V15.04z M26.716,19.101c0.537,0,1.045-0.09,1.523-0.269
		c0.478-0.179,0.896-0.438,1.254-0.776c0.358-0.338,0.642-0.751,0.851-1.239c0.209-0.488,0.314-1.04,0.314-1.657v-0.597
		c0-0.617-0.105-1.169-0.314-1.657c-0.209-0.488-0.493-0.9-0.851-1.239c-0.358-0.338-0.776-0.597-1.254-0.776
		c-0.478-0.179-0.985-0.269-1.523-0.269c-0.537,0-1.045,0.09-1.523,0.269c-0.478,0.179-0.896,0.438-1.254,0.776
		c-0.358,0.339-0.642,0.752-0.851,1.239c-0.209,0.488-0.313,1.04-0.313,1.657v0.597c0,0.617,0.104,1.17,0.313,1.657
		c0.209,0.488,0.493,0.901,0.851,1.239c0.358,0.339,0.776,0.597,1.254,0.776C25.671,19.011,26.179,19.101,26.716,19.101z"/>
	<path fill="#EE2E5D" d="M42.433,29.766h-3.762V7.456h3.762v2.15h0.537c0.398-0.816,0.975-1.448,1.732-1.896
		c0.756-0.448,1.721-0.672,2.896-0.672c0.876,0,1.707,0.169,2.493,0.508c0.786,0.339,1.473,0.831,2.06,1.478
		c0.587,0.647,1.055,1.438,1.403,2.374c0.348,0.936,0.523,2,0.523,3.195v0.537c0,1.214-0.169,2.289-0.508,3.225
		c-0.339,0.936-0.796,1.727-1.373,2.374c-0.578,0.647-1.259,1.135-2.045,1.463c-0.787,0.328-1.637,0.493-2.553,0.493
		c-0.677,0-1.264-0.07-1.762-0.209c-0.498-0.14-0.931-0.328-1.299-0.567c-0.369-0.239-0.677-0.512-0.926-0.821
		c-0.249-0.308-0.463-0.632-0.642-0.97h-0.537V29.766z M46.374,19.101c1.174,0,2.125-0.363,2.851-1.09
		c0.726-0.726,1.09-1.717,1.09-2.971v-0.358c0-1.254-0.363-2.244-1.09-2.971c-0.727-0.726-1.677-1.09-2.851-1.09
		c-1.175,0-2.125,0.373-2.851,1.12c-0.727,0.746-1.09,1.727-1.09,2.941v0.358c0,1.214,0.363,2.194,1.09,2.941
		C44.249,18.728,45.2,19.101,46.374,19.101z"/>
	<path fill="#EE2E5D" d="M62.085,29.766h-3.762V7.456h3.762v2.15h0.537c0.398-0.816,0.975-1.448,1.732-1.896
		c0.756-0.448,1.721-0.672,2.896-0.672c0.876,0,1.707,0.169,2.493,0.508c0.786,0.339,1.473,0.831,2.06,1.478
		c0.587,0.647,1.055,1.438,1.403,2.374c0.348,0.936,0.523,2,0.523,3.195v0.537c0,1.214-0.169,2.289-0.508,3.225
		c-0.339,0.936-0.796,1.727-1.373,2.374c-0.578,0.647-1.259,1.135-2.045,1.463c-0.787,0.328-1.637,0.493-2.553,0.493
		c-0.677,0-1.264-0.07-1.762-0.209c-0.498-0.14-0.931-0.328-1.299-0.567c-0.369-0.239-0.677-0.512-0.926-0.821
		c-0.249-0.308-0.463-0.632-0.642-0.97h-0.537V29.766z M66.027,19.101c1.174,0,2.125-0.363,2.851-1.09
		c0.726-0.726,1.09-1.717,1.09-2.971v-0.358c0-1.254-0.363-2.244-1.09-2.971c-0.727-0.726-1.677-1.09-2.851-1.09
		c-1.175,0-2.125,0.373-2.851,1.12c-0.727,0.746-1.09,1.727-1.09,2.941v0.358c0,1.214,0.363,2.194,1.09,2.941
		C63.902,18.728,64.852,19.101,66.027,19.101z"/>
	<path fill="#EE2E5D" d="M82.663,4.614c0.246,0.237,0.53,0.426,0.852,0.568c0.322,0.142,0.672,0.213,1.051,0.213
		c0.359,0,0.705-0.071,1.036-0.213c0.331-0.142,0.62-0.331,0.866-0.568c0.246-0.236,0.44-0.52,0.582-0.852
		c0.142-0.331,0.213-0.686,0.213-1.065c0-0.378-0.071-0.733-0.213-1.065c-0.142-0.331-0.336-0.615-0.582-0.852
		c-0.246-0.236-0.535-0.426-0.866-0.568C85.27,0.071,84.924,0,84.565,0c-0.379,0-0.729,0.071-1.051,0.213
		c-0.322,0.142-0.606,0.331-0.852,0.568c-0.246,0.237-0.44,0.521-0.582,0.852c-0.142,0.331-0.213,0.686-0.213,1.065
		c0,0.379,0.071,0.734,0.213,1.065C82.222,4.094,82.416,4.378,82.663,4.614z"/>
	<polygon fill="#EE2E5D" points="86.476,18.683 86.476,7.456 78.056,7.456 78.056,11.039 82.714,11.039 82.714,18.683 
		77.698,18.683 77.698,22.266 90.775,22.266 90.775,18.683 	"/>
	<path fill="#EE2E5D" d="M93.063,7.456h4.389V0h3.762v7.456h5.344v3.583h-5.344v6.748c0,0.597,0.269,0.896,0.806,0.896h4.001v3.583
		h-6.27c-0.677,0-1.229-0.219-1.657-0.657c-0.428-0.438-0.642-0.995-0.642-1.672v-8.898h-4.389V7.456z"/>
	<path fill="#EE2E5D" d="M126.091,15.04c0,1.234-0.209,2.324-0.627,3.269c-0.418,0.946-0.985,1.742-1.702,2.389
		c-0.717,0.647-1.538,1.14-2.463,1.478c-0.926,0.338-1.896,0.508-2.911,0.508c-1.015,0-1.986-0.169-2.911-0.508
		c-0.926-0.338-1.747-0.831-2.463-1.478c-0.717-0.647-1.284-1.443-1.702-2.389c-0.418-0.945-0.627-2.035-0.627-3.269v-0.358
		c0-1.214,0.209-2.294,0.627-3.24c0.418-0.945,0.985-1.747,1.702-2.404c0.717-0.657,1.538-1.154,2.463-1.493
		c0.926-0.338,1.896-0.508,2.911-0.508c1.015,0,1.986,0.169,2.911,0.508c0.926,0.339,1.747,0.836,2.463,1.493
		c0.717,0.657,1.284,1.458,1.702,2.404c0.418,0.946,0.627,2.026,0.627,3.24V15.04z M118.388,19.101c0.537,0,1.045-0.09,1.523-0.269
		c0.478-0.179,0.896-0.438,1.254-0.776c0.358-0.338,0.642-0.751,0.851-1.239c0.209-0.488,0.314-1.04,0.314-1.657v-0.597
		c0-0.617-0.105-1.169-0.314-1.657c-0.209-0.488-0.493-0.9-0.851-1.239c-0.358-0.338-0.776-0.597-1.254-0.776
		c-0.478-0.179-0.985-0.269-1.523-0.269c-0.537,0-1.045,0.09-1.523,0.269c-0.478,0.179-0.896,0.438-1.254,0.776
		c-0.358,0.339-0.642,0.752-0.851,1.239c-0.209,0.488-0.313,1.04-0.313,1.657v0.597c0,0.617,0.104,1.17,0.313,1.657
		c0.209,0.488,0.493,0.901,0.851,1.239c0.358,0.339,0.776,0.597,1.254,0.776C117.343,19.011,117.85,19.101,118.388,19.101z"/>
	<path fill="#EE2E5D" d="M129.487,26.362h14.63v3.404h-14.63V26.362z"/>
	<path fill="#EE2E5D" d="M161.992,18.683v3.583h-12.899v-6.27l9.316-4.538V10.92h-9.136V7.456h12.361v6.091l-9.315,4.598v0.537
		H161.992z"/>
	<path fill="#EE2E5D" d="M170.346,16.085c0.02,0.438,0.124,0.841,0.313,1.209c0.189,0.369,0.448,0.687,0.776,0.955
		c0.328,0.269,0.706,0.478,1.135,0.627c0.428,0.149,0.881,0.224,1.359,0.224c0.935,0,1.652-0.164,2.15-0.493
		c0.497-0.328,0.856-0.721,1.075-1.179l3.225,1.791c-0.179,0.378-0.428,0.772-0.746,1.179c-0.319,0.408-0.732,0.781-1.239,1.12
		c-0.508,0.339-1.125,0.617-1.851,0.836c-0.727,0.219-1.578,0.328-2.553,0.328c-1.115,0-2.13-0.179-3.045-0.537
		c-0.916-0.358-1.707-0.876-2.374-1.553c-0.667-0.676-1.184-1.503-1.553-2.478c-0.369-0.975-0.552-2.08-0.552-3.314v-0.179
		c0-1.135,0.194-2.169,0.582-3.105c0.388-0.935,0.92-1.732,1.597-2.389c0.676-0.657,1.468-1.169,2.374-1.538
		c0.906-0.368,1.876-0.552,2.911-0.552c1.274,0,2.368,0.224,3.284,0.672c0.915,0.448,1.672,1.015,2.269,1.702
		c0.597,0.687,1.035,1.443,1.314,2.269c0.278,0.826,0.418,1.627,0.418,2.404v2H170.346z M173.899,10.442
		c-0.955,0-1.732,0.244-2.329,0.731c-0.597,0.488-0.985,1.05-1.164,1.687h6.987c-0.119-0.697-0.493-1.274-1.12-1.732
		C175.645,10.671,174.854,10.442,173.899,10.442z"/>
	<path fill="#EE2E5D" d="M185.027,7.456h6.27v2.15h0.537c0.279-0.816,0.751-1.448,1.418-1.896c0.667-0.448,1.468-0.672,2.404-0.672
		c1.473,0,2.657,0.463,3.553,1.388c0.896,0.926,1.344,2.334,1.344,4.225v0.657l-3.881,0.358v-0.418c0-0.816-0.209-1.468-0.627-1.956
		c-0.418-0.488-1.045-0.731-1.881-0.731c-0.836,0-1.493,0.289-1.971,0.866c-0.478,0.578-0.717,1.403-0.717,2.478v4.777h3.404v3.583
		h-10.211v-3.583h3.046v-7.644h-2.687V7.456z"/>
	<path fill="#EE2E5D" d="M219.584,15.04c0,1.234-0.209,2.324-0.627,3.269c-0.418,0.946-0.985,1.742-1.702,2.389
		c-0.717,0.647-1.538,1.14-2.463,1.478c-0.926,0.338-1.896,0.508-2.911,0.508c-1.015,0-1.986-0.169-2.911-0.508
		c-0.926-0.338-1.747-0.831-2.463-1.478c-0.717-0.647-1.284-1.443-1.702-2.389c-0.418-0.945-0.627-2.035-0.627-3.269v-0.358
		c0-1.214,0.209-2.294,0.627-3.24c0.418-0.945,0.985-1.747,1.702-2.404c0.717-0.657,1.538-1.154,2.463-1.493
		c0.926-0.338,1.896-0.508,2.911-0.508c1.015,0,1.985,0.169,2.911,0.508c0.926,0.339,1.747,0.836,2.463,1.493
		c0.717,0.657,1.284,1.458,1.702,2.404c0.418,0.946,0.627,2.026,0.627,3.24V15.04z M211.88,19.101c0.537,0,1.045-0.09,1.523-0.269
		c0.478-0.179,0.896-0.438,1.254-0.776c0.358-0.338,0.642-0.751,0.851-1.239c0.209-0.488,0.314-1.04,0.314-1.657v-0.597
		c0-0.617-0.105-1.169-0.314-1.657c-0.209-0.488-0.493-0.9-0.851-1.239c-0.358-0.338-0.776-0.597-1.254-0.776
		c-0.478-0.179-0.985-0.269-1.523-0.269c-0.537,0-1.045,0.09-1.523,0.269c-0.478,0.179-0.896,0.438-1.254,0.776
		c-0.358,0.339-0.642,0.752-0.851,1.239c-0.209,0.488-0.314,1.04-0.314,1.657v0.597c0,0.617,0.104,1.17,0.314,1.657
		c0.209,0.488,0.493,0.901,0.851,1.239c0.358,0.339,0.776,0.597,1.254,0.776C210.835,19.011,211.343,19.101,211.88,19.101z"/>
	<path fill="#EE2E5D" d="M222.141,26.362h14.63v3.404h-14.63V26.362z"/>
	<path fill="#EE2E5D" d="M250.973,20.116h-0.537c-0.159,0.339-0.354,0.662-0.582,0.97c-0.229,0.309-0.528,0.582-0.896,0.821
		c-0.369,0.239-0.806,0.428-1.314,0.567c-0.507,0.139-1.12,0.209-1.836,0.209c-0.916,0-1.767-0.164-2.553-0.493
		c-0.787-0.328-1.473-0.816-2.06-1.463c-0.587-0.647-1.045-1.438-1.373-2.374c-0.328-0.935-0.493-2.01-0.493-3.225v-0.537
		c0-1.194,0.174-2.259,0.523-3.195c0.348-0.935,0.826-1.727,1.433-2.374c0.607-0.647,1.314-1.139,2.12-1.478
		c0.806-0.338,1.657-0.508,2.553-0.508c1.194,0,2.139,0.224,2.836,0.672c0.697,0.448,1.244,1.08,1.642,1.896h0.537V0h3.762v22.266
		h-3.762V20.116z M247.032,19.101c1.174,0,2.125-0.373,2.851-1.12c0.726-0.746,1.09-1.727,1.09-2.941v-0.358
		c0-1.214-0.363-2.195-1.09-2.941c-0.727-0.746-1.677-1.12-2.851-1.12c-1.175,0-2.125,0.363-2.851,1.09
		c-0.727,0.727-1.09,1.717-1.09,2.971v0.358c0,1.254,0.363,2.244,1.09,2.971C244.907,18.738,245.857,19.101,247.032,19.101z"/>
	<path fill="#EE2E5D" d="M269.646,20.116c-0.398,0.936-0.955,1.597-1.672,1.985c-0.717,0.388-1.553,0.582-2.508,0.582
		c-0.896,0-1.737-0.169-2.523-0.508c-0.787-0.338-1.478-0.836-2.075-1.493c-0.597-0.657-1.07-1.453-1.418-2.389
		c-0.348-0.935-0.522-2-0.522-3.195v-0.478c0-1.174,0.169-2.229,0.508-3.165c0.338-0.935,0.796-1.732,1.373-2.389
		c0.577-0.657,1.249-1.159,2.015-1.508c0.766-0.348,1.587-0.523,2.463-0.523c1.055,0,1.906,0.179,2.553,0.537
		c0.647,0.358,1.159,0.916,1.538,1.672h0.538V7.456h3.762v10.331c0,0.597,0.269,0.896,0.806,0.896h0.567v3.583h-2.568
		c-0.677,0-1.229-0.199-1.657-0.597c-0.428-0.398-0.642-0.915-0.642-1.553H269.646z M266.302,19.101c1.094,0,1.971-0.363,2.627-1.09
		c0.657-0.726,0.985-1.717,0.985-2.971v-0.358c0-1.254-0.328-2.244-0.985-2.971c-0.657-0.726-1.533-1.09-2.627-1.09
		c-1.095,0-1.971,0.363-2.628,1.09c-0.657,0.727-0.985,1.717-0.985,2.971v0.358c0,1.254,0.328,2.244,0.985,2.971
		C264.331,18.738,265.207,19.101,266.302,19.101z"/>
	<path fill="#EE2E5D" d="M289.199,7.456h3.762v19.981c0,0.676-0.214,1.234-0.642,1.672c-0.428,0.438-0.981,0.657-1.657,0.657h-8.677
		v-3.583h6.407c0.537,0,0.806-0.299,0.806-0.896v-5.171h-0.537c-0.657,1.712-2.07,2.568-4.24,2.568c-0.737,0-1.423-0.119-2.06-0.358
		c-0.637-0.239-1.194-0.607-1.672-1.105c-0.478-0.497-0.851-1.12-1.12-1.866c-0.269-0.746-0.403-1.627-0.403-2.642V7.456h3.762v8.48
		c0,1.055,0.249,1.876,0.746,2.463c0.497,0.587,1.244,0.881,2.239,0.881c1.135,0,1.966-0.363,2.493-1.09
		c0.527-0.726,0.791-1.717,0.791-2.971V7.456z"/>
</g>
<g>
</g>
<g>
</g>
<g>
</g>
<g>
</g>
<g>
</g>
<g>
</g>
</svg>
